<?xml version="1.0" standalone="no"?>
<!DOCTYPE svg PUBLIC "-//W3C//DTD SVG 20010904//EN"
 "http://www.w3.org/TR/2001/REC-SVG-20010904/DTD/svg10.dtd">
<svg version="1.0" xmlns="http://www.w3.org/2000/svg"
 width="70.000000pt" height="70.000000pt" viewBox="0 0 70.000000 70.000000"
 preserveAspectRatio="xMidYMid meet">
<metadata>
Created by potrace 1.14, written by Peter Selinger 2001-2017
</metadata>
<g transform="translate(0.000000,70.000000) scale(0.100000,-0.100000)"
fill="#000000" stroke="none">
<path d="M389 645 c-61 -33 -74 -100 -38 -185 16 -38 18 -53 10 -68 -19 -35 4
-32 32 4 39 47 81 67 133 61 107 -12 167 -127 113 -217 -25 -40 -44 -54 -79
-56 -14 -1 -33 -2 -43 -3 -10 -1 -15 -5 -12 -11 11 -18 85 -11 115 10 55 39
80 144 47 206 -14 27 -13 32 10 78 39 77 22 150 -43 181 -42 20 -208 20 -245
0z m255 -34 c35 -33 40 -74 14 -132 -14 -35 -24 -47 -31 -40 -8 8 -6 22 6 46
23 48 21 80 -5 105 -23 21 -68 28 -68 10 0 -5 6 -10 14 -10 8 0 24 -8 37 -19
23 -18 23 -19 6 -63 l-17 -45 -48 12 c-30 8 -58 9 -77 4 -46 -14 -50 -12 -64
26 -12 33 -8 73 7 76 7 2 77 7 115 8 10 1 15 6 12 11 -11 17 -126 12 -147 -7
-19 -17 -25 -81 -9 -99 5 -5 12 -19 16 -31 12 -43 -22 -25 -39 20 -19 51 -20
68 -4 103 19 40 60 53 165 50 81 -2 95 -5 117 -25z"/>
<path d="M69 433 c-38 -32 -68 -95 -69 -141 0 -55 25 -90 85 -117 62 -29 74
-30 101 -10 18 13 16 14 -20 13 -42 -1 -76 26 -76 63 0 10 -4 21 -10 24 -6 4
-10 -7 -10 -25 0 -42 -20 -35 -39 14 -11 29 -12 44 -2 76 17 56 70 110 110
110 39 0 39 -11 2 -33 -40 -23 -90 -127 -62 -127 5 0 15 16 21 35 14 41 72 95
104 95 24 0 48 -22 59 -52 7 -19 27 -25 27 -8 0 29 -29 64 -72 86 -63 32 -108
31 -149 -3z"/>
<path d="M460 370 c-20 -20 -26 -40 -12 -40 4 0 15 9 25 20 9 11 26 20 37 20
25 0 60 -34 60 -58 0 -24 -21 -49 -43 -54 -26 -4 -20 -24 6 -20 31 3 57 39 57
77 0 63 -86 99 -130 55z"/>
<path d="M310 343 c-8 -3 -24 -14 -36 -24 -19 -18 -22 -18 -54 -3 -38 19 -63
10 -68 -25 -2 -15 5 -26 27 -39 27 -15 30 -22 29 -62 -2 -72 14 -98 79 -126
70 -31 107 -27 151 19 40 41 60 92 56 140 -5 56 -20 76 -77 103 -51 23 -78 28
-107 17z m55 -19 c13 -5 9 -11 -18 -30 -46 -31 -81 -105 -74 -160 5 -47 -10
-51 -33 -9 -31 58 19 179 81 196 13 4 25 7 26 8 1 1 9 -2 18 -5z m-132 -55
c-14 -14 -63 10 -56 27 4 11 10 11 35 -2 19 -10 27 -19 21 -25z m210 18 c58
-42 19 -187 -59 -217 -85 -33 -120 95 -51 182 15 19 65 48 83 48 5 0 18 -6 27
-13z"/>
</g>
</svg>
